<?xml version="1.0" encoding="UTF-8"?><svg xmlns="http://www.w3.org/2000/svg" xmlns:xlink="http://www.w3.org/1999/xlink" viewBox="0 0 511.98 107.32"><defs><style>.i{fill:#fff;}.j{fill:#111115;}.k{fill:url(#f);}.l{fill:url(#g);}.m{filter:url(#d);}.n{fill:url(#h);}</style><filter id="d" filterUnits="userSpaceOnUse"><feOffset dx="2" dy="2"/><feGaussianBlur result="e" stdDeviation="3"/><feFlood flood-color="#000" flood-opacity=".88"/><feComposite in2="e" operator="in"/><feComposite in="SourceGraphic"/></filter><linearGradient id="f" x1="5.91" y1="54.66" x2="92.75" y2="54.66" gradientTransform="matrix(1, 0, 0, 1, 0, 0)" gradientUnits="userSpaceOnUse"><stop offset="0" stop-color="#99027d"/><stop offset=".73" stop-color="#e100b4"/><stop offset="1" stop-color="#84136f"/></linearGradient><linearGradient id="g" x1="77.88" y1="53.15" x2="155.34" y2="53.15" xlink:href="#f"/><linearGradient id="h" x1="-81.87" y1="446.62" x2="-36.56" y2="446.62" gradientTransform="translate(306.04 -503.27) rotate(14.71) scale(1 1.37)" xlink:href="#f"/></defs><g id="a"/><g id="b"><g id="c"><g class="m"><g><path class="i" d="M157.12,75.7c-.98-1.03-1.89-2.14-2.73-3.31l.79-.05,1.94,3.36Z"/><path class="i" d="M260.72,40.26c-.34,.82-.65,1.66-.91,2.52l1.81-.21c-.27-.79-.57-1.56-.9-2.31Z"/><path class="i" d="M260.72,40.26c-.34,.82-.65,1.66-.91,2.52l1.81-.21c-.27-.79-.57-1.56-.9-2.31Z"/><path class="i" d="M510.87,36.68l-28.5,64.07c-1.66,4.11-5.07,6.56-9.15,6.57h-.02c-1.44,0-2.95-.34-4.58-1.04-.04-.02-.09-.04-.13-.06-3.59-1.64-5.12-4.07-5.77-5.82-.64-1.73-1.06-4.51,.55-8l4.92-11.13c-.87,.26-1.77,.39-2.69,.39-2.72,0-5.25-1.16-7.36-3.15,.47-1.15,.75-2.39,.81-3.7l-3.7,.03c.83,1.41,1.81,2.65,2.89,3.67-.5,1.22-1.23,2.33-2.17,3.31-2.01,2.08-4.7,3.19-7.77,3.19s-5.62-1.08-7.66-3.12c-.59-.59-1.1-1.24-1.53-1.93-1.68,1.09-3.54,1.7-5.51,1.7-2.44,0-4.73-.93-6.71-2.57-.47,1-1.12,1.92-1.91,2.74-2.01,2.08-4.7,3.19-7.77,3.19s-5.61-1.08-7.65-3.11c-.73-.72-1.33-1.53-1.81-2.4-1.84,1.38-3.93,2.15-6.15,2.15s-4.28-.76-6.12-2.11c-.44,.82-1.01,1.59-1.68,2.29-2.01,2.08-4.7,3.19-7.77,3.19s-5.61-1.08-7.65-3.11c-1.73-1.72-2.76-3.88-3.03-6.31-.02-.16-.04-.32-.05-.49-.09,.17-.18,.34-.28,.5-.62,1.01-1.45,1.93-2.48,2.72-2.64,2.09-5.89,3.79-9.66,5.06-3.76,1.26-7.43,1.9-10.93,1.9h0c-6.16-.01-11.77-1.38-16.66-4.07-2.77-1.53-5.23-3.4-7.34-5.59l-14.45-.47c-2.09,2.3-4.52,4.26-7.26,5.87-4.77,2.81-10.19,4.24-16.1,4.24h.01c-5.91,.01-11.35-1.41-16.15-4.22-3.36-1.96-6.26-4.46-8.65-7.44-.67-.83-1.29-1.69-1.87-2.59v3.23c0,2.97-1.07,5.62-3.11,7.65-2.04,2.04-4.68,3.11-7.65,3.11s-5.62-1.08-7.65-3.11c-.16-.16-.31-.32-.45-.48-4.38,2.57-9.31,3.87-14.67,3.87h0c-5.68-.01-10.87-1.47-15.43-4.34-3.77-2.38-6.91-5.5-9.34-9.28-.29-.46-.58-.94-.85-1.42,.01,.47-.01,.93-.08,1.39-.25,2.08-1.21,4.02-2.81,5.62-.05,.05-.1,.1-.16,.15-5.61,5.22-12.63,7.86-20.89,7.86h-.01c-6.04,.01-11.53-1.41-16.33-4.22-2.56-1.49-4.83-3.28-6.82-5.36l-1.94-3.36-.79,.05c.84,1.17,1.75,2.28,2.73,3.31l2.51,4.34c1.78,3.09,2.26,6.69,1.33,10.13-.92,3.45-3.13,6.33-6.22,8.11-2.03,1.17-4.33,1.79-6.67,1.79h0c-4.76,.01-9.19-2.55-11.57-6.67l-11.16-19.32-1.89-3.27c-.03,.39-.09,.77-.19,1.15-.2,.78-.45,1.54-.74,2.28-3.18,8.27-11.17,13.87-20.18,13.87-1.85,0-3.7-.24-5.5-.71l-9.2-2.41c-9.36,11.41-23.35,18.11-38.21,18.11h0c-27.26-.01-49.43-22.18-49.43-49.44S22.17,4.23,49.43,4.23c15.56,0,30.16,7.41,39.43,19.68l-1.38,2.31,3.28,.38c-.6-.92-1.23-1.82-1.9-2.69l7.76-13.07c2.34-4.05,6.77-6.61,11.53-6.61s9.19,2.56,11.57,6.68l11.75,20.36,23.05,2.64c2.46-3.4,5.54-6.19,9.19-8.31,4.71-2.74,10.12-4.13,16.09-4.13,4.52,0,8.76,.89,12.59,2.65,3.82,1.75,7.27,4.39,10.25,7.82,1.09,1.25,1.84,2.65,2.2,4.11,2.72-4.29,6.32-7.77,10.73-10.34,4.8-2.81,10.24-4.23,16.14-4.23s11.33,1.43,16.11,4.24c4.74,2.79,8.56,6.65,11.34,11.45,.58,1,1.1,2.03,1.56,3.09-.34,.82-.65,1.66-.91,2.52l1.81-.21c-.27-.79-.57-1.56-.9-2.31,.41-1.01,.87-2,1.39-2.96,2.57-4.8,6.15-8.66,10.63-11.49,4.57-2.87,9.76-4.33,15.43-4.33,4.26,0,8.29,.85,12.01,2.52V10.76c0-3.07,1.11-5.75,3.18-7.77,2.03-1.96,4.65-2.99,7.58-2.99s5.69,1.06,7.69,3.06,3.07,4.67,3.07,7.7v26.79l1.25-.03c.09-.16,.17-.32,.26-.48,2.67-4.83,6.42-8.68,11.15-11.43,4.71-2.74,10.12-4.13,16.09-4.13s11.23,1.38,15.66,4.11c3.76,2.32,6.8,5.41,9.06,9.2v-2.09c0-3.07,1.1-5.76,3.18-7.77,2.03-1.96,4.65-2.99,7.58-2.99,2.46,0,4.68,.7,6.51,2.04,3.41-1.73,7.21-2.6,11.32-2.6,4.58,0,8.75,1.05,12.39,3.12,.92,.52,1.79,1.11,2.62,1.75,.76-.54,1.56-1.04,2.39-1.5,4.03-2.23,8.64-3.37,13.69-3.37,4.58,0,8.75,1.05,12.39,3.11,1.58,.9,3.02,1.97,4.31,3.22,1.12-2.26,2.98-4,5.41-5.02,1.4-.59,2.83-.88,4.24-.88,1.23,0,2.44,.22,3.6,.67,2.49,.96,4.45,2.8,5.68,5.34l11.38,22.6s9.91-22.39,9.93-22.44c1.86-3.92,5.17-6.17,9.07-6.17,1.47,0,3,.33,4.53,.97,3.69,1.56,5.28,3.97,5.96,5.73,.69,1.74,1.15,4.58-.48,8.17Z"/><path class="i" d="M458.95,74.81c-.06,1.31-.34,2.55-.81,3.7-1.08-1.02-2.06-2.26-2.89-3.67l3.7-.03Z"/></g><path class="i" d="M72.02,54.77c.01,.09,.02,.18,.04,.27-.02-.09-.03-.18-.04-.27Z"/><path class="i" d="M72.16,55.51c.02,.08,.05,.16,.07,.23-.02-.08-.05-.15-.07-.23Z"/><path class="i" d="M72.4,56.22c.09,.22,.18,.43,.29,.64-.11-.2-.2-.41-.29-.63h0Z"/><path class="i" d="M72.23,55.74c.05,.16,.1,.32,.16,.48-.06-.16-.11-.32-.16-.48Z"/><path class="i" d="M72.06,55.04c.03,.16,.06,.32,.1,.47-.04-.16-.07-.31-.1-.47Z"/><path class="i" d="M71.98,53.6c-.02,.24-.01,.48,0,.72-.01-.24-.01-.48,0-.72Z"/><path class="i" d="M90.76,26.6l-3.28-.38,1.38-2.31c.67,.87,1.3,1.77,1.9,2.69Z"/><path class="i" d="M90.76,26.6l-3.28-.38,1.38-2.31c.67,.87,1.3,1.77,1.9,2.69Z"/><path class="i" d="M157.12,75.7c-.98-1.03-1.89-2.14-2.73-3.31l.79-.05,1.94,3.36Z"/></g><g><g><path class="j" d="M180.18,80.29c-4.98,0-9.42-1.13-13.3-3.41-3.89-2.27-6.94-5.35-9.15-9.24-2.21-3.89-3.31-8.29-3.31-13.21s1.09-9.52,3.27-13.44c2.18-3.92,5.17-6.99,8.96-9.2,3.8-2.21,8.15-3.31,13.07-3.31,3.67,0,7.03,.7,10.08,2.1,3.05,1.4,5.79,3.5,8.22,6.3,.87,1,1.18,2.02,.93,3.08-.25,1.06-.93,1.99-2.05,2.8-.87,.62-1.84,.83-2.89,.61-1.06-.22-2.02-.76-2.89-1.63-3.05-3.23-6.85-4.85-11.39-4.85-3.17,0-5.97,.73-8.4,2.19-2.43,1.46-4.33,3.5-5.69,6.11-1.37,2.61-2.05,5.69-2.05,9.24,0,3.36,.7,6.35,2.1,8.96s3.35,4.68,5.83,6.21c2.49,1.53,5.38,2.29,8.68,2.29,2.18,0,4.09-.26,5.74-.79,1.65-.53,3.16-1.35,4.53-2.47,1-.81,2.02-1.26,3.08-1.35,1.06-.09,1.99,.21,2.8,.89,1.06,.87,1.65,1.85,1.77,2.94,.12,1.09-.25,2.07-1.12,2.94-4.48,4.17-10.08,6.26-16.8,6.26Z"/><path class="j" d="M229.75,80.29c-4.54,0-8.62-1.13-12.23-3.41-3.61-2.27-6.46-5.35-8.54-9.24-2.09-3.89-3.13-8.29-3.13-13.21s1.14-9.34,3.41-13.26c2.27-3.92,5.35-7.02,9.24-9.29,3.89-2.27,8.26-3.41,13.12-3.41s9.21,1.14,13.07,3.41c3.86,2.27,6.92,5.37,9.2,9.29,2.27,3.92,3.41,8.34,3.41,13.26h-3.64c0,4.92-1.04,9.32-3.13,13.21-2.09,3.89-4.93,6.97-8.54,9.24-3.61,2.27-7.69,3.41-12.23,3.41Zm1.87-8.4c3.17,0,6.01-.76,8.5-2.29,2.49-1.52,4.45-3.61,5.88-6.25,1.43-2.65,2.15-5.62,2.15-8.92s-.72-6.36-2.15-9.01c-1.43-2.64-3.39-4.73-5.88-6.26-2.49-1.52-5.32-2.29-8.5-2.29s-5.93,.76-8.45,2.29c-2.52,1.53-4.51,3.61-5.98,6.26-1.46,2.65-2.19,5.65-2.19,9.01s.73,6.27,2.19,8.92c1.46,2.64,3.45,4.73,5.98,6.25,2.52,1.53,5.34,2.29,8.45,2.29Zm20.91,8.12c-1.37,0-2.51-.45-3.41-1.35-.9-.9-1.35-2.04-1.35-3.41v-14.28l1.77-9.9,7.75,3.36v20.82c0,1.37-.45,2.51-1.35,3.41-.9,.9-2.04,1.35-3.41,1.35Z"/><path class="j" d="M289.97,80.29c-4.85,0-9.23-1.13-13.12-3.41-3.89-2.27-6.97-5.37-9.24-9.29s-3.41-8.34-3.41-13.26,1.04-9.32,3.13-13.21c2.08-3.89,4.93-6.97,8.54-9.24,3.61-2.27,7.69-3.41,12.23-3.41,3.67,0,7.06,.76,10.17,2.29,3.11,1.53,5.73,3.59,7.84,6.21V11.76c0-1.43,.45-2.58,1.35-3.45,.9-.87,2.04-1.31,3.41-1.31s2.58,.44,3.46,1.31c.87,.87,1.31,2.02,1.31,3.45V54.33c0,4.92-1.14,9.33-3.41,13.26-2.27,3.92-5.34,7.02-9.2,9.29-3.86,2.27-8.21,3.41-13.07,3.41Zm0-8.4c3.17,0,6.01-.76,8.5-2.29,2.49-1.52,4.45-3.62,5.88-6.3,1.43-2.68,2.15-5.66,2.15-8.96s-.72-6.35-2.15-8.96c-1.43-2.61-3.39-4.68-5.88-6.21-2.49-1.52-5.32-2.29-8.5-2.29s-5.93,.76-8.45,2.29c-2.52,1.53-4.51,3.59-5.97,6.21-1.46,2.61-2.19,5.6-2.19,8.96s.73,6.29,2.19,8.96c1.46,2.68,3.45,4.78,5.97,6.3,2.52,1.53,5.34,2.29,8.45,2.29Z"/><path class="j" d="M351.77,80.29c-5.17,0-9.76-1.1-13.77-3.31-4.01-2.21-7.16-5.26-9.43-9.15-2.27-3.89-3.41-8.36-3.41-13.4s1.07-9.6,3.22-13.49c2.15-3.89,5.12-6.94,8.92-9.15,3.79-2.21,8.15-3.31,13.07-3.31s9.02,1.07,12.51,3.22c3.48,2.15,6.15,5.1,7.98,8.87,1.84,3.77,2.75,8.11,2.75,13.02,0,1.18-.41,2.16-1.21,2.94-.81,.78-1.84,1.16-3.08,1.16h-37.62v-7.47h37.34l-3.83,2.61c-.06-3.11-.69-5.9-1.87-8.36-1.18-2.46-2.86-4.4-5.04-5.83-2.18-1.43-4.82-2.15-7.94-2.15-3.55,0-6.58,.78-9.1,2.33-2.52,1.56-4.43,3.69-5.74,6.4-1.31,2.71-1.96,5.77-1.96,9.2s.78,6.47,2.33,9.15c1.56,2.68,3.7,4.79,6.44,6.35,2.74,1.56,5.88,2.33,9.43,2.33,1.93,0,3.9-.36,5.93-1.07,2.02-.71,3.66-1.54,4.9-2.47,.93-.68,1.94-1.04,3.03-1.07,1.09-.03,2.04,.29,2.85,.98,1.06,.93,1.62,1.96,1.68,3.08,.06,1.12-.44,2.09-1.49,2.89-2.12,1.68-4.75,3.05-7.89,4.11-3.14,1.06-6.15,1.59-9.01,1.59Z"/><path class="j" d="M385.84,80.01c-1.37,0-2.51-.45-3.41-1.35-.9-.9-1.35-2.04-1.35-3.41V33.7c0-1.43,.45-2.58,1.35-3.45,.9-.87,2.04-1.31,3.41-1.31s2.58,.44,3.46,1.31c.87,.87,1.31,2.02,1.31,3.45v41.54c0,1.37-.44,2.51-1.31,3.41-.87,.9-2.02,1.35-3.46,1.35Zm31.18,0c-1.37,0-2.51-.45-3.41-1.35s-1.35-2.04-1.35-3.41v-26.7c0-3.92-.97-6.83-2.89-8.73-1.93-1.9-4.45-2.85-7.56-2.85s-5.91,1.12-8.03,3.36c-2.12,2.24-3.17,5.1-3.17,8.59h-5.88c0-4.04,.81-7.61,2.43-10.69,1.62-3.08,3.86-5.49,6.72-7.24,2.86-1.74,6.13-2.61,9.8-2.61s6.69,.78,9.43,2.33c2.74,1.56,4.87,3.84,6.4,6.86,1.52,3.02,2.29,6.68,2.29,10.97v26.7c0,1.37-.44,2.51-1.31,3.41-.87,.9-2.02,1.35-3.46,1.35Zm31.09,0c-1.37,0-2.51-.45-3.41-1.35-.9-.9-1.35-2.04-1.35-3.41v-26.7c0-3.92-.96-6.83-2.89-8.73-1.93-1.9-4.45-2.85-7.56-2.85s-5.9,1.12-7.98,3.36c-2.09,2.24-3.13,5.1-3.13,8.59h-7.75c0-4.04,.87-7.61,2.61-10.69,1.74-3.08,4.18-5.49,7.33-7.24,3.14-1.74,6.74-2.61,10.78-2.61,3.55,0,6.69,.78,9.43,2.33,2.74,1.56,4.87,3.84,6.39,6.86,1.52,3.02,2.29,6.68,2.29,10.97v26.7c0,1.37-.44,2.51-1.31,3.41-.87,.9-2.02,1.35-3.45,1.35Z"/><path class="j" d="M484.15,77.86c-1.18,.5-2.29,.55-3.31,.14-1.03-.4-1.85-1.2-2.47-2.38l-21.38-40.61c-.62-1.18-.7-2.32-.23-3.41,.47-1.09,1.29-1.88,2.47-2.38,1.18-.5,2.3-.54,3.36-.14,1.06,.41,1.87,1.2,2.43,2.38l20.45,40.61c.62,1.18,.85,2.32,.7,3.41-.16,1.09-.82,1.88-2.01,2.38Zm-11.02,24.46c-.62,0-1.37-.19-2.24-.56-2.74-1.25-3.49-3.21-2.24-5.88l28.47-64.32c1.24-2.61,3.21-3.36,5.88-2.24,2.8,1.18,3.58,3.14,2.33,5.88l-28.57,64.23c-.75,1.93-1.96,2.89-3.64,2.89Z"/></g><path class="k" d="M69.59,75l15.58,4.18c-7.83,11.41-20.97,18.91-35.82,18.91-23.95,0-43.43-19.48-43.43-43.43S25.4,11.23,49.34,11.23c16.18,0,30.31,8.9,37.78,22.06,.61,1.07,1.17,2.17,1.69,3.29,2.31,5.03,3.7,10.58,3.92,16.43,0,.14,.01,.29,.01,.43-2.88,1.5-6.11,2.3-9.41,2.3-.14,0-.27,0-.4,0l-4.51-1.21-.55,.47c.25-.74,.17-1.22,.15-1.54-.04-.89-.12-1.77-.23-2.64-1.89-14.02-13.92-24.87-28.45-24.87-15.83,0-28.72,12.88-28.72,28.71s12.88,28.72,28.72,28.72c7.89,0,15.05-3.2,20.25-8.37Z"/><path class="l" d="M151.66,94.09c-1.16,.67-2.42,.99-3.67,.99-2.54,0-5.01-1.32-6.38-3.68l-33.54-58.1-7.07,12.24c-2,3.46-4.89,6.15-8.25,7.89-2.88,1.5-6.11,2.3-9.41,2.3-.14,0-.27,0-.4,0-1.68-.03-3.38-.28-5.06-.74l10.94-18.41,12.88-21.67c1.32-2.28,3.74-3.68,6.37-3.68s5.06,1.4,6.37,3.68l39.92,69.13c2.03,3.52,.83,8.02-2.69,10.05Z"/><path class="n" d="M88.67,63.91c-8.35-2.19-16.9,2.8-19.09,11.15h0l28.7,7.53c8.35,2.19,16.9-2.8,19.09-11.15h0l-28.7-7.53Z"/></g></g></g></svg>